# xmcd CD database file
#
# Track frame offsets:
#	150
#	13201
#	27972
#	40468
#	51446
#	66685
#	80636
#	93397
#	106819
#	119029
#	133420
#	155316
#	168064
#	180059
#	196101
#	211970
#	227615
#	242221
#	253347
#	267835
#
# Disc length: 3625 seconds
#
# Revision: 0
# Processed by: cddbd v1.5.2PL0 Copyright (c) Steve Scherf et al.
# Submitted via: CDex 1.70beta2
#
DISCID=1e0e2714
DTITLE=Various Artist - Birdland [CD1]
DYEAR=2006
DGENRE=Jazz
TTITLE0=Eddie Jefferson - The Birdland Story
TTITLE1=James Moody - Moody's Bounce
TTITLE2=Miles Davis and Charlie Parker - Chasing the Bird
TTITLE3=Miles Davis and Charlie Parker - Donna Lee
TTITLE4=Miles Davis and Charlie Parker - Now's the Time
TTITLE5=Miles Davis and Charlie Parker - Romance Without Finance
TTITLE6=Dizzy Gillespie and Charlie Parker -  All the Things you Are
TTITLE7=Dizzy Gillespie and Charlie Parker - Blue N' Boogie
TTITLE8=Dizzy Gillespie and Charlie Parker - Groovin High
TTITLE9=Dizzy Gillespie and Charlie Parker - Hot House
TTITLE10=Charlie Parker Quintet - Hot Blues
TTITLE11=Charlie Parker New Stars - Relaxin' at the Camarillo
TTITLE12=Charlie Parker New Stars - Stupendous
TTITLE13=Charlie Parker All Stars - Salt Peanuts
TTITLE14=Clifford Brown - Cherokee
TTITLE15=Clifford Brown - What's New
TTITLE16=Sara Vaughn - A Hundred Years From Today
TTITLE17=Sara Vaughn -  Perdido
TTITLE18=Sara Vaughn - When We're Alone (Penthouse Serenade)
TTITLE19=Sara Vaughn - Lullaby of Birdland
EXTD=YEAR: 2006
EXTT0=
EXTT1=
EXTT2=
EXTT3=
EXTT4=
EXTT5=
EXTT6=
EXTT7=
EXTT8=
EXTT9=
EXTT10=
EXTT11=
EXTT12=
EXTT13=
EXTT14=
EXTT15=
EXTT16=
EXTT17=
EXTT18=
EXTT19=
PLAYORDER=
